<mxfile host="app.diagrams.net" modified="2022-04-26T02:51:16.907Z" agent="5.0 (Windows NT 10.0; Win64; x64) AppleWebKit/537.36 (KHTML, like Gecko) Chrome/100.0.4896.127 Safari/537.36" etag="MLHnr_caqAQ-AORAewPh" version="17.4.6" type="github">
  <diagram id="C5RBs43oDa-KdzZeNtuy" name="Page-1">
    <mxGraphModel dx="1108" dy="450" grid="1" gridSize="10" guides="1" tooltips="1" connect="1" arrows="1" fold="1" page="1" pageScale="1" pageWidth="827" pageHeight="1169" math="0" shadow="0">
      <root>
        <mxCell id="WIyWlLk6GJQsqaUBKTNV-0" />
        <mxCell id="WIyWlLk6GJQsqaUBKTNV-1" parent="WIyWlLk6GJQsqaUBKTNV-0" />
        <mxCell id="WIyWlLk6GJQsqaUBKTNV-3" value="numero_paginas" style="rounded=1;whiteSpace=wrap;html=1;fontSize=12;glass=0;strokeWidth=1;shadow=0;" parent="WIyWlLk6GJQsqaUBKTNV-1" vertex="1">
          <mxGeometry x="60" y="50" width="120" height="40" as="geometry" />
        </mxCell>
        <mxCell id="WIyWlLk6GJQsqaUBKTNV-7" value="isbn" style="rounded=1;whiteSpace=wrap;html=1;fontSize=12;glass=0;strokeWidth=1;shadow=0;" parent="WIyWlLk6GJQsqaUBKTNV-1" vertex="1">
          <mxGeometry x="260" y="100" width="120" height="40" as="geometry" />
        </mxCell>
        <mxCell id="WIyWlLk6GJQsqaUBKTNV-11" value="codigo_autor" style="rounded=1;whiteSpace=wrap;html=1;fontSize=12;glass=0;strokeWidth=1;shadow=0;" parent="WIyWlLk6GJQsqaUBKTNV-1" vertex="1">
          <mxGeometry x="20" y="100" width="120" height="40" as="geometry" />
        </mxCell>
        <mxCell id="c_JdVIObP0XdAQ6m39qv-0" value="libro" style="whiteSpace=wrap;html=1;aspect=fixed;" vertex="1" parent="WIyWlLk6GJQsqaUBKTNV-1">
          <mxGeometry x="190" y="148" width="80" height="80" as="geometry" />
        </mxCell>
        <mxCell id="c_JdVIObP0XdAQ6m39qv-1" value="titulo" style="rounded=1;whiteSpace=wrap;html=1;fontSize=12;glass=0;strokeWidth=1;shadow=0;" vertex="1" parent="WIyWlLk6GJQsqaUBKTNV-1">
          <mxGeometry x="200" y="50" width="120" height="40" as="geometry" />
        </mxCell>
        <mxCell id="c_JdVIObP0XdAQ6m39qv-4" value="fecha_nacimiento_muerte" style="rounded=1;whiteSpace=wrap;html=1;fontSize=12;glass=0;strokeWidth=1;shadow=0;" vertex="1" parent="WIyWlLk6GJQsqaUBKTNV-1">
          <mxGeometry x="20" y="280" width="150" height="40" as="geometry" />
        </mxCell>
        <mxCell id="c_JdVIObP0XdAQ6m39qv-5" value="tipo_autor" style="rounded=1;whiteSpace=wrap;html=1;fontSize=12;glass=0;strokeWidth=1;shadow=0;" vertex="1" parent="WIyWlLk6GJQsqaUBKTNV-1">
          <mxGeometry x="130" y="330" width="120" height="40" as="geometry" />
        </mxCell>
        <mxCell id="c_JdVIObP0XdAQ6m39qv-6" value="datos_prestamo" style="rounded=1;whiteSpace=wrap;html=1;fontSize=12;glass=0;strokeWidth=1;shadow=0;" vertex="1" parent="WIyWlLk6GJQsqaUBKTNV-1">
          <mxGeometry x="220" y="270" width="120" height="40" as="geometry" />
        </mxCell>
        <mxCell id="c_JdVIObP0XdAQ6m39qv-7" value="apellido_autor" style="rounded=1;whiteSpace=wrap;html=1;fontSize=12;glass=0;strokeWidth=1;shadow=0;" vertex="1" parent="WIyWlLk6GJQsqaUBKTNV-1">
          <mxGeometry x="20" y="220" width="120" height="40" as="geometry" />
        </mxCell>
        <mxCell id="c_JdVIObP0XdAQ6m39qv-12" value="nombre_autor" style="rounded=1;whiteSpace=wrap;html=1;fontSize=12;glass=0;strokeWidth=1;shadow=0;" vertex="1" parent="WIyWlLk6GJQsqaUBKTNV-1">
          <mxGeometry x="20" y="160" width="120" height="40" as="geometry" />
        </mxCell>
        <mxCell id="c_JdVIObP0XdAQ6m39qv-17" value="solicitud" style="rhombus;whiteSpace=wrap;html=1;" vertex="1" parent="WIyWlLk6GJQsqaUBKTNV-1">
          <mxGeometry x="350" y="169" width="120" height="80" as="geometry" />
        </mxCell>
        <mxCell id="c_JdVIObP0XdAQ6m39qv-53" style="edgeStyle=orthogonalEdgeStyle;rounded=0;orthogonalLoop=1;jettySize=auto;html=1;exitX=0;exitY=0.5;exitDx=0;exitDy=0;" edge="1" parent="WIyWlLk6GJQsqaUBKTNV-1" source="c_JdVIObP0XdAQ6m39qv-19">
          <mxGeometry relative="1" as="geometry">
            <mxPoint x="610" y="200" as="targetPoint" />
            <Array as="points">
              <mxPoint x="652" y="160" />
              <mxPoint x="610" y="160" />
            </Array>
          </mxGeometry>
        </mxCell>
        <mxCell id="c_JdVIObP0XdAQ6m39qv-19" value="fecha_inicio" style="rounded=1;whiteSpace=wrap;html=1;fontSize=12;glass=0;strokeWidth=1;shadow=0;" vertex="1" parent="WIyWlLk6GJQsqaUBKTNV-1">
          <mxGeometry x="652" y="131" width="160" height="40" as="geometry" />
        </mxCell>
        <mxCell id="c_JdVIObP0XdAQ6m39qv-20" value="fecha_devolucion_esperada" style="rounded=1;whiteSpace=wrap;html=1;fontSize=12;glass=0;strokeWidth=1;shadow=0;" vertex="1" parent="WIyWlLk6GJQsqaUBKTNV-1">
          <mxGeometry x="654" y="188" width="160" height="40" as="geometry" />
        </mxCell>
        <mxCell id="c_JdVIObP0XdAQ6m39qv-21" value="fecha_devolucion_real" style="rounded=1;whiteSpace=wrap;html=1;fontSize=12;glass=0;strokeWidth=1;shadow=0;" vertex="1" parent="WIyWlLk6GJQsqaUBKTNV-1">
          <mxGeometry x="656" y="249" width="160" height="40" as="geometry" />
        </mxCell>
        <mxCell id="c_JdVIObP0XdAQ6m39qv-22" value="solicitud" style="rhombus;whiteSpace=wrap;html=1;" vertex="1" parent="WIyWlLk6GJQsqaUBKTNV-1">
          <mxGeometry x="480" y="340" width="120" height="85" as="geometry" />
        </mxCell>
        <mxCell id="c_JdVIObP0XdAQ6m39qv-52" style="edgeStyle=orthogonalEdgeStyle;rounded=0;orthogonalLoop=1;jettySize=auto;html=1;exitX=0;exitY=0.5;exitDx=0;exitDy=0;" edge="1" parent="WIyWlLk6GJQsqaUBKTNV-1" source="c_JdVIObP0XdAQ6m39qv-23">
          <mxGeometry relative="1" as="geometry">
            <mxPoint x="480" y="211" as="targetPoint" />
          </mxGeometry>
        </mxCell>
        <mxCell id="c_JdVIObP0XdAQ6m39qv-23" value="prestamo" style="whiteSpace=wrap;html=1;aspect=fixed;" vertex="1" parent="WIyWlLk6GJQsqaUBKTNV-1">
          <mxGeometry x="524" y="171" width="80" height="80" as="geometry" />
        </mxCell>
        <mxCell id="c_JdVIObP0XdAQ6m39qv-29" value="nombre" style="rounded=1;whiteSpace=wrap;html=1;fontSize=12;glass=0;strokeWidth=1;shadow=0;" vertex="1" parent="WIyWlLk6GJQsqaUBKTNV-1">
          <mxGeometry x="360" y="425" width="100" height="35" as="geometry" />
        </mxCell>
        <mxCell id="c_JdVIObP0XdAQ6m39qv-30" value="apellido" style="rounded=1;whiteSpace=wrap;html=1;fontSize=12;glass=0;strokeWidth=1;shadow=0;" vertex="1" parent="WIyWlLk6GJQsqaUBKTNV-1">
          <mxGeometry x="380" y="480" width="100" height="35" as="geometry" />
        </mxCell>
        <mxCell id="c_JdVIObP0XdAQ6m39qv-31" value="rut" style="rounded=1;whiteSpace=wrap;html=1;fontSize=12;glass=0;strokeWidth=1;shadow=0;" vertex="1" parent="WIyWlLk6GJQsqaUBKTNV-1">
          <mxGeometry x="500" y="500" width="100" height="35" as="geometry" />
        </mxCell>
        <mxCell id="c_JdVIObP0XdAQ6m39qv-32" value="direcciÃ³n" style="rounded=1;whiteSpace=wrap;html=1;fontSize=12;glass=0;strokeWidth=1;shadow=0;" vertex="1" parent="WIyWlLk6GJQsqaUBKTNV-1">
          <mxGeometry x="634" y="445" width="100" height="35" as="geometry" />
        </mxCell>
        <mxCell id="c_JdVIObP0XdAQ6m39qv-33" value="telefono" style="rounded=1;whiteSpace=wrap;html=1;fontSize=12;glass=0;strokeWidth=1;shadow=0;" vertex="1" parent="WIyWlLk6GJQsqaUBKTNV-1">
          <mxGeometry x="650" y="390" width="100" height="35" as="geometry" />
        </mxCell>
        <mxCell id="c_JdVIObP0XdAQ6m39qv-37" value="" style="endArrow=classic;html=1;rounded=0;" edge="1" parent="WIyWlLk6GJQsqaUBKTNV-1">
          <mxGeometry width="50" height="50" relative="1" as="geometry">
            <mxPoint x="160" y="278" as="sourcePoint" />
            <mxPoint x="210" y="228" as="targetPoint" />
          </mxGeometry>
        </mxCell>
        <mxCell id="c_JdVIObP0XdAQ6m39qv-39" value="" style="endArrow=classic;html=1;rounded=0;" edge="1" parent="WIyWlLk6GJQsqaUBKTNV-1">
          <mxGeometry width="50" height="50" relative="1" as="geometry">
            <mxPoint x="140" y="237" as="sourcePoint" />
            <mxPoint x="190" y="187" as="targetPoint" />
          </mxGeometry>
        </mxCell>
        <mxCell id="c_JdVIObP0XdAQ6m39qv-41" value="" style="endArrow=classic;html=1;rounded=0;entryX=0.375;entryY=1.063;entryDx=0;entryDy=0;entryPerimeter=0;exitX=0.583;exitY=0;exitDx=0;exitDy=0;exitPerimeter=0;" edge="1" parent="WIyWlLk6GJQsqaUBKTNV-1" source="c_JdVIObP0XdAQ6m39qv-5" target="c_JdVIObP0XdAQ6m39qv-0">
          <mxGeometry width="50" height="50" relative="1" as="geometry">
            <mxPoint x="200" y="318" as="sourcePoint" />
            <mxPoint x="230" y="246" as="targetPoint" />
          </mxGeometry>
        </mxCell>
        <mxCell id="c_JdVIObP0XdAQ6m39qv-45" value="" style="endArrow=none;html=1;rounded=0;exitX=1;exitY=0.25;exitDx=0;exitDy=0;" edge="1" parent="WIyWlLk6GJQsqaUBKTNV-1">
          <mxGeometry width="50" height="50" relative="1" as="geometry">
            <mxPoint x="270" y="210" as="sourcePoint" />
            <mxPoint x="350" y="210" as="targetPoint" />
            <Array as="points">
              <mxPoint x="270" y="210" />
              <mxPoint x="320" y="210" />
            </Array>
          </mxGeometry>
        </mxCell>
      </root>
    </mxGraphModel>
  </diagram>
</mxfile>
